<?xml version="1.0" standalone="no"?>
<!DOCTYPE svg PUBLIC "-//W3C//DTD SVG 20010904//EN"
 "http://www.w3.org/TR/2001/REC-SVG-20010904/DTD/svg10.dtd">
<svg version="1.0" xmlns="http://www.w3.org/2000/svg"
 width="1000.000000pt" height="1000.000000pt" viewBox="0 0 1000.000000 1000.000000"
 preserveAspectRatio="xMidYMid meet">

<g transform="translate(0.000000,1000.000000) scale(0.100000,-0.100000)"
fill="#000000" stroke="none">
<path d="M5155 8551 c-11 -5 -79 -14 -151 -20 -252 -21 -509 -71 -684 -133
-154 -56 -227 -105 -256 -174 -45 -107 112 -213 436 -294 144 -36 186 -43 530
-87 190 -24 914 -24 1067 1 57 9 122 16 145 16 66 0 290 41 448 82 278 72 422
176 389 280 -44 135 -440 267 -932 308 -67 6 -138 15 -157 20 -43 12 -807 12
-835 1z m1045 -195 c188 -27 361 -57 420 -73 162 -43 260 -101 260 -153 0 -83
-234 -170 -564 -210 -49 -6 -93 -13 -97 -15 -4 -3 -139 -12 -300 -21 -255 -15
-333 -15 -584 -4 -278 11 -324 15 -515 40 -232 30 -462 96 -523 150 -36 32
-41 81 -11 108 66 60 191 103 414 141 322 55 413 60 955 56 332 -2 456 -7 545
-19z"/>
<path d="M2134 7856 c-14 -37 94 -240 176 -329 94 -102 189 -164 339 -216 44
-16 92 -38 105 -49 22 -17 24 -21 11 -38 -12 -17 -30 -19 -182 -22 -184 -3
-213 -6 -213 -25 0 -22 61 -108 115 -163 103 -105 227 -165 384 -185 130 -17
153 -23 165 -42 14 -24 -4 -37 -81 -62 -32 -9 -74 -23 -93 -30 -19 -7 -62 -21
-94 -32 -33 -11 -62 -25 -64 -32 -11 -32 156 -152 259 -187 71 -24 222 -24
298 -1 30 9 72 17 93 17 31 0 38 -4 38 -19 0 -21 -47 -60 -198 -165 -103 -72
-104 -85 -12 -132 115 -58 250 -65 360 -18 39 17 43 19 123 69 60 38 87 40 87
5 0 -11 -47 -82 -104 -157 -57 -75 -102 -142 -99 -149 9 -24 82 -44 162 -44
80 0 110 10 218 75 17 11 35 17 39 13 3 -4 1 -35 -5 -70 -6 -35 -20 -121 -31
-193 -32 -207 -49 -314 -65 -405 -20 -120 -43 -258 -50 -305 -9 -53 -30 -92
-73 -137 -25 -26 -33 -41 -26 -48 14 -14 869 -9 883 5 13 13 30 110 75 410 8
50 19 119 25 155 31 175 44 247 65 384 18 113 29 153 42 163 14 10 123 13 516
13 472 0 498 -1 507 -18 10 -19 3 -95 -19 -207 -5 -27 -19 -108 -30 -180 -28
-178 -70 -428 -95 -576 -19 -111 -19 -145 1 -153 9 -3 207 -6 440 -6 469 0
455 -2 416 62 -32 53 -33 79 -11 220 11 73 24 158 29 188 10 70 28 174 45 270
8 41 17 98 20 125 3 28 10 70 15 95 5 25 18 106 29 180 12 74 28 171 35 215
37 211 92 542 111 670 7 50 18 119 24 155 31 178 42 245 61 365 46 291 66 356
120 385 11 6 20 17 20 25 0 18 22 17 -450 16 -206 0 -389 -1 -407 -1 -37 0
-37 1 -58 -130 -16 -102 -37 -224 -60 -360 -8 -47 -21 -130 -30 -185 -8 -55
-22 -138 -30 -185 -8 -47 -19 -114 -25 -149 -5 -35 -15 -69 -21 -77 -17 -21
-1027 -21 -1035 0 -3 8 2 61 11 118 9 57 22 144 29 193 8 50 19 119 25 155 25
143 41 240 56 335 8 55 23 137 32 183 11 58 13 86 5 94 -12 12 -871 13 -884 0
-5 -5 2 -22 14 -38 20 -25 23 -40 23 -109 -1 -94 -32 -252 -51 -259 -8 -3 -33
1 -56 9 -24 8 -72 21 -108 31 -36 9 -85 22 -110 29 -48 14 -167 46 -265 72
-33 8 -80 21 -105 28 -25 7 -74 20 -110 30 -36 10 -85 23 -110 30 -25 7 -74
20 -110 30 -36 9 -96 26 -135 36 -136 38 -171 47 -235 64 -36 10 -87 24 -115
31 -27 8 -135 36 -240 64 -104 28 -210 56 -235 64 -82 27 -109 29 -116 12z
m2590 -322 c9 -8 14 -20 10 -25 -3 -6 -9 -42 -14 -82 -4 -40 -17 -124 -29
-187 -25 -145 -38 -220 -57 -340 -8 -52 -21 -133 -29 -180 -8 -47 -17 -101
-20 -120 -21 -138 -28 -189 -29 -220 l-1 -35 852 -3 852 -2 13 22 c6 13 18 64
24 113 27 187 44 297 48 304 3 4 10 41 15 82 10 67 30 195 61 384 6 39 18 105
26 148 8 42 14 87 14 99 0 43 27 58 105 58 91 0 102 -10 86 -77 -6 -27 -13
-75 -17 -108 -3 -33 -10 -77 -16 -99 -5 -21 -13 -69 -18 -105 -4 -36 -15 -106
-23 -156 -42 -245 -48 -284 -57 -340 -5 -33 -14 -89 -20 -125 -41 -241 -65
-387 -84 -510 -8 -52 -19 -117 -25 -145 -5 -27 -15 -84 -21 -125 -25 -165 -40
-259 -55 -350 -9 -52 -22 -138 -30 -190 -8 -53 -19 -116 -24 -140 -6 -25 -11
-59 -11 -77 0 -50 -21 -63 -103 -63 -40 0 -78 4 -86 9 -15 10 -14 22 30 281
10 63 26 158 35 210 8 52 19 115 24 140 6 25 14 84 20 133 6 48 15 99 20 113
6 14 10 39 10 56 0 16 9 77 21 135 11 57 18 111 15 119 -8 21 -1697 21 -1719
0 -8 -8 -17 -45 -21 -83 -4 -37 -11 -84 -16 -103 -5 -19 -14 -66 -19 -105 -14
-100 -38 -252 -49 -310 -6 -27 -18 -97 -27 -155 -9 -58 -23 -143 -31 -190 -8
-47 -18 -116 -22 -154 -6 -49 -14 -73 -27 -82 -21 -16 -142 -19 -164 -5 -16
11 -13 53 23 261 14 85 35 211 46 280 11 69 25 148 30 175 5 28 15 82 20 120
6 39 17 111 25 160 8 50 21 137 30 195 8 58 18 112 21 120 3 8 9 47 14 85 5
39 16 111 25 160 20 118 40 237 60 360 9 55 21 125 27 155 6 30 14 82 19 115
8 66 44 284 58 354 5 24 15 47 22 52 25 16 146 11 163 -7z m-1789 -64 c33 -6
105 -17 159 -25 55 -8 102 -18 105 -21 6 -6 -151 1 -246 12 -51 6 -53 5 -53
-19 0 -59 127 -186 237 -237 38 -18 77 -37 88 -43 23 -13 204 -36 288 -36 57
-1 78 -16 35 -25 -70 -16 -183 -27 -209 -21 -17 4 -35 2 -43 -4 -15 -12 -135
-28 -123 -16 4 5 31 13 61 19 29 6 55 15 57 20 4 9 -37 26 -111 46 -46 12
-101 37 -203 91 -46 24 -61 39 -74 70 -8 21 -18 39 -22 39 -13 0 -83 141 -77
155 5 14 12 14 131 -5z m770 -360 c4 -6 -14 -9 -47 -8 l-53 1 45 7 c25 4 46 8
47 8 1 1 5 -2 8 -8z m-557 -105 c-10 -23 -8 -29 27 -65 24 -25 68 -52 114 -72
73 -32 81 -33 211 -33 105 0 147 4 187 18 29 10 63 17 75 15 20 -3 17 -7 -22
-28 -25 -13 -78 -39 -119 -57 -71 -32 -103 -35 -82 -9 17 21 3 25 -68 19 -44
-3 -91 1 -141 12 -41 9 -88 20 -105 23 -37 9 -175 151 -175 181 0 19 6 21 55
21 l55 0 -12 -25z m677 -115 c-3 -5 -11 -10 -16 -10 -6 0 -7 5 -4 10 3 6 11
10 16 10 6 0 7 -4 4 -10z m-320 -160 c-3 -5 -13 -10 -21 -10 -8 0 -12 5 -9 10
3 6 13 10 21 10 8 0 12 -4 9 -10z m477 -27 c-44 -60 -146 -141 -157 -123 -9
14 -35 12 -69 -5 -34 -18 -132 -35 -203 -35 -53 0 -77 11 -166 76 -23 16 -42
36 -42 44 0 15 90 58 101 48 3 -3 -1 -16 -8 -27 -12 -19 -10 -24 11 -40 35
-27 120 -51 180 -51 79 0 172 28 257 76 43 24 81 44 86 44 4 0 8 5 8 10 0 6 5
10 11 10 6 0 1 -12 -9 -27z m-236 -239 c-12 -32 13 -44 94 -44 65 0 86 4 134
29 56 28 72 27 60 -3 -5 -14 -180 -106 -202 -106 -5 0 -13 7 -16 16 -4 11 -13
14 -28 11 -24 -7 -118 30 -118 45 0 13 59 68 72 68 6 0 7 -7 4 -16z"/>
<path d="M1458 4312 l-28 -3 0 -635 0 -634 173 2 172 3 5 235 c3 129 7 236 8
238 1 1 100 1 220 0 l217 -3 5 -228 c4 -188 8 -229 20 -237 23 -15 313 -13
328 2 9 9 12 160 12 620 0 590 -1 609 -20 628 -18 18 -31 19 -166 15 -88 -2
-151 -8 -158 -15 -7 -7 -13 -92 -16 -233 l-5 -222 -220 0 -220 0 -3 227 c-2
216 -3 228 -23 238 -18 10 -222 11 -301 2z"/>
<path d="M7077 4263 c-4 -3 -7 -52 -7 -108 0 -114 -4 -122 -64 -129 -20 -3
-41 -8 -46 -11 -6 -4 -10 -61 -10 -130 0 -69 4 -126 10 -130 5 -3 26 -8 47
-11 21 -2 44 -12 51 -21 9 -12 12 -80 12 -253 l0 -237 31 -62 c35 -69 74 -103
151 -132 100 -36 311 -17 366 34 20 19 22 29 22 134 0 131 -1 133 -85 114 -66
-15 -119 3 -135 44 -11 28 -14 333 -4 359 5 13 23 16 89 16 46 0 95 4 109 10
26 10 26 10 26 134 0 76 -4 127 -10 131 -6 4 -54 7 -106 8 -72 2 -97 6 -104
17 -5 8 -10 58 -10 111 0 60 -4 99 -12 107 -13 13 -309 18 -321 5z"/>
<path d="M3115 4033 c-63 -14 -147 -52 -195 -86 -218 -157 -283 -430 -159
-667 33 -63 133 -159 204 -196 94 -49 168 -67 275 -68 310 0 542 222 543 519
0 230 -158 430 -388 489 -56 15 -231 20 -280 9z m216 -306 c117 -62 152 -238
68 -341 -110 -133 -309 -85 -355 85 -49 183 127 340 287 256z"/>
<path d="M4382 4016 c-29 -12 -69 -39 -90 -59 -21 -20 -43 -37 -49 -37 -12 0
-23 32 -23 68 0 13 -8 26 -19 30 -11 4 -86 5 -168 2 l-148 -5 0 -485 0 -485
145 -3 c80 -1 155 0 167 3 21 5 21 7 25 298 l3 293 25 37 c30 44 90 71 137 62
45 -8 90 -49 103 -93 5 -21 10 -152 10 -300 0 -162 4 -271 10 -283 10 -17 23
-19 164 -19 123 0 156 3 166 15 9 11 11 103 8 377 l-3 363 -32 65 c-62 126
-152 180 -295 180 -64 -1 -95 -6 -136 -24z"/>
<path d="M5335 4031 c-111 -29 -251 -140 -304 -241 -60 -114 -78 -277 -45
-404 45 -174 169 -299 349 -351 90 -26 241 -25 331 3 103 32 244 133 244 175
0 17 -156 147 -176 147 -8 0 -31 -12 -49 -26 -43 -32 -126 -64 -168 -64 -83 0
-193 71 -199 130 l-3 25 309 3 c226 2 313 6 324 15 12 9 14 31 9 112 -13 213
-101 361 -265 441 -75 36 -80 37 -202 40 -69 2 -138 0 -155 -5z m223 -273 c34
-21 72 -83 72 -116 0 -12 -9 -22 -22 -26 -30 -8 -262 -8 -282 0 -36 14 -4 103
52 143 50 35 121 35 180 -1z"/>
<path d="M6330 4030 c-136 -34 -219 -109 -255 -226 -34 -111 -6 -219 75 -291
33 -30 130 -76 205 -97 90 -27 178 -58 193 -69 6 -5 12 -23 12 -38 0 -41 -35
-53 -130 -44 -73 6 -205 51 -241 81 -21 19 -43 17 -61 -3 -25 -31 -97 -152
-100 -170 -3 -19 87 -78 162 -106 134 -49 338 -63 448 -31 156 46 242 153 242
304 0 173 -75 240 -370 330 -124 38 -161 79 -105 116 42 27 139 9 302 -57 38
-16 44 -10 93 83 16 31 35 66 42 77 25 41 -25 77 -167 122 -77 25 -280 36
-345 19z"/>
<path d="M7719 4016 c-5 -6 -9 -15 -9 -20 0 -6 34 -94 76 -196 41 -102 79
-196 84 -210 8 -26 35 -91 50 -125 5 -11 25 -63 45 -115 20 -52 40 -104 45
-115 61 -140 69 -175 45 -198 -22 -23 -78 -21 -141 2 -27 11 -56 16 -62 12 -7
-4 -33 -54 -58 -112 l-46 -104 26 -19 c38 -29 91 -46 194 -64 176 -30 303 14
380 133 42 64 52 86 138 313 14 37 32 85 41 107 8 22 21 57 29 78 8 20 20 54
28 75 8 20 24 64 37 97 12 33 25 69 30 80 8 18 23 59 49 135 5 14 18 50 30 80
12 30 26 69 31 87 5 18 14 35 19 38 6 4 10 15 10 25 0 24 -39 29 -198 28 -98
0 -127 -4 -143 -17 -20 -16 -36 -63 -161 -481 -16 -51 -43 -65 -57 -28 -5 13
-39 118 -77 233 -65 205 -97 285 -112 285 -87 6 -315 3 -323 -4z"/>
<path d="M1570 2853 c-35 -13 -100 -76 -119 -116 -15 -31 -21 -62 -21 -108 1
-57 5 -70 38 -119 46 -69 102 -99 185 -99 74 -1 157 39 157 76 0 19 -40 16
-63 -4 -29 -27 -153 -25 -188 2 -50 38 -71 83 -72 151 -1 52 4 69 26 103 31
47 91 81 143 81 20 0 58 -12 85 -27 39 -21 52 -24 62 -14 16 16 0 39 -43 63
-34 18 -153 25 -190 11z"/>
<path d="M4537 2853 c-16 -15 -6 -33 18 -33 18 0 25 5 25 20 0 20 -28 28 -43
13z"/>
<path d="M5790 2853 c-8 -4 -30 -17 -47 -31 -131 -99 -111 -328 33 -391 61
-27 146 -28 206 -1 65 29 69 36 66 132 l-3 83 -69 5 c-79 6 -110 -6 -87 -34 8
-10 29 -16 55 -16 49 0 66 -13 66 -51 0 -64 -95 -110 -175 -86 -62 19 -91 44
-114 97 -26 60 -26 93 -1 147 47 104 135 138 236 93 46 -21 64 -20 64 6 0 31
-61 54 -140 53 -41 0 -82 -3 -90 -6z"/>
<path d="M3016 2824 c-3 -9 -6 -25 -6 -37 0 -11 -10 -31 -22 -44 l-21 -23 20
-22 c19 -20 22 -38 25 -136 3 -107 4 -114 28 -133 34 -26 105 -23 105 6 0 13
-9 21 -31 25 -53 11 -54 14 -54 125 0 112 1 115 62 115 42 0 34 31 -12 43 -49
12 -57 23 -59 80 -1 21 -27 23 -35 1z"/>
<path d="M4299 2823 c-1 -35 -8 -55 -23 -72 -20 -22 -21 -47 -2 -58 10 -6 15
-38 18 -122 3 -109 4 -114 31 -137 35 -30 92 -33 106 -5 11 20 -2 31 -38 31
-39 0 -51 31 -51 128 0 99 7 112 64 112 45 0 44 41 -1 45 -42 4 -63 17 -63 40
0 34 -10 55 -26 55 -8 0 -14 -8 -15 -17z"/>
<path d="M1975 2733 c-47 -25 -66 -45 -87 -92 -31 -68 -19 -121 42 -182 48
-48 51 -49 108 -49 50 0 66 5 101 30 41 30 81 99 81 140 0 26 -36 104 -57 122
-55 48 -132 61 -188 31z m146 -61 c27 -24 33 -38 37 -83 4 -48 1 -59 -22 -86
-37 -43 -84 -58 -128 -40 -50 21 -70 50 -76 107 -4 41 0 56 19 85 27 38 35 42
96 44 34 1 49 -5 74 -27z"/>
<path d="M2378 2732 c-23 -14 -30 -14 -52 -2 -14 7 -29 10 -33 6 -10 -9 -15
-226 -7 -278 6 -39 27 -51 38 -22 3 9 6 55 6 102 0 131 35 175 125 158 48 -9
58 -34 64 -161 6 -101 8 -110 26 -110 19 0 20 8 23 112 2 87 -1 120 -13 143
-32 63 -118 88 -177 52z"/>
<path d="M2718 2734 c-82 -44 -54 -153 43 -169 49 -8 91 -41 87 -67 -2 -11
-15 -27 -30 -36 -24 -14 -30 -14 -78 1 -65 21 -70 21 -70 -1 0 -24 60 -52 112
-52 79 0 130 55 112 124 -6 27 -59 66 -89 66 -28 0 -85 40 -85 60 0 33 26 43
95 36 54 -5 65 -4 65 9 0 18 -62 45 -104 45 -17 -1 -43 -7 -58 -16z"/>
<path d="M3373 2734 c-18 -8 -33 -19 -33 -24 0 -17 -21 -11 -40 12 -15 19 -20
20 -34 9 -23 -19 -24 -282 -1 -301 24 -20 35 -2 35 58 1 97 15 144 51 174 17
15 41 28 53 30 15 2 21 10 21 27 0 30 -11 33 -52 15z"/>
<path d="M3991 2734 c-58 -26 -100 -89 -101 -152 0 -93 73 -172 162 -172 63 0
118 26 118 57 0 23 -18 30 -36 14 -5 -5 -25 -14 -45 -20 -64 -20 -126 20 -143
92 -9 36 9 99 34 122 28 25 103 32 134 11 36 -23 58 -21 54 6 -7 48 -108 72
-177 42z"/>
<path d="M4758 2737 c-59 -27 -108 -99 -108 -159 1 -136 159 -217 268 -138 72
52 93 148 49 225 -40 71 -136 104 -209 72z m116 -47 c65 -24 87 -141 36 -195
-34 -36 -82 -49 -124 -34 -58 21 -82 68 -78 150 2 27 36 73 62 82 25 9 77 8
104 -3z"/>
<path d="M5185 2737 c-11 -6 -40 -12 -65 -12 l-45 0 -3 -141 c-2 -115 0 -143
12 -153 8 -7 19 -10 24 -7 5 3 11 55 14 116 5 121 15 143 69 155 87 19 119
-23 119 -153 0 -50 3 -97 6 -106 11 -28 33 -17 40 20 9 49 -2 207 -16 234 -26
49 -110 75 -155 47z"/>
<path d="M6270 2724 l-44 -25 -17 23 c-32 42 -40 12 -37 -148 3 -132 5 -149
21 -152 15 -3 17 6 17 72 0 115 33 177 105 196 13 4 20 14 20 30 0 33 -13 34
-65 4z"/>
<path d="M6494 2735 c-18 -8 -46 -31 -63 -52 -28 -34 -31 -45 -31 -103 0 -55
4 -72 25 -100 35 -47 80 -69 141 -70 172 -1 226 242 72 321 -43 22 -99 23
-144 4z m120 -45 c14 -5 35 -24 46 -42 41 -67 14 -154 -57 -183 -34 -15 -41
-15 -81 0 -32 13 -48 27 -62 56 -24 46 -25 70 -5 109 32 61 94 85 159 60z"/>
<path d="M7311 2729 c-24 -14 -37 -17 -44 -10 -6 6 -21 11 -34 11 -22 0 -23
-4 -24 -72 0 -79 0 -292 1 -320 0 -12 8 -18 25 -18 24 0 25 3 25 55 0 63 15
77 55 51 42 -28 107 -21 156 17 69 52 87 137 47 217 -41 81 -134 111 -207 69z
m144 -65 c30 -37 38 -77 25 -124 -11 -43 -31 -63 -78 -78 -42 -14 -88 3 -121
44 -19 24 -22 38 -19 83 4 46 10 59 38 84 29 26 38 29 82 25 40 -4 55 -11 73
-34z"/>
<path d="M3521 2727 c-17 -17 -14 -207 3 -248 17 -41 62 -69 109 -69 20 0 49
8 66 18 26 14 34 15 52 4 13 -8 25 -10 30 -5 5 5 8 77 7 159 -3 125 -5 149
-18 149 -12 0 -16 -21 -20 -105 -7 -140 -27 -169 -113 -170 -16 0 -38 10 -52
25 -24 23 -25 31 -25 133 0 84 -3 111 -14 115 -7 3 -19 0 -25 -6z"/>
<path d="M4541 2726 c-8 -9 -11 -58 -9 -157 3 -136 4 -144 23 -144 19 0 20 7
20 154 0 154 -6 181 -34 147z"/>
<path d="M6814 2716 c-3 -14 -4 -73 -2 -131 l3 -107 37 -34 c31 -28 46 -34 81
-34 23 0 53 7 66 16 18 13 28 14 48 5 47 -21 53 -4 53 149 0 110 -3 140 -15
150 -12 10 -18 10 -30 0 -11 -10 -15 -36 -15 -114 -1 -110 -9 -131 -58 -151
-35 -15 -81 -3 -104 28 -14 17 -18 42 -18 109 0 87 -11 138 -30 138 -5 0 -12
-11 -16 -24z"/>
</g>
</svg>
